# xmcd
#
# Track frame offsets: 
#        150
#        19791
#        36212
#        56761
#        66245
#        89475
#        115080
#        138830
#        159695
#        180577
#        195729
#        222331
#        243573
#        263588
#        287656
#        301831
#        318215
#        339152
#
# Disc length: 4769 seconds
#
# Revision: 0
# Processed by: cddbd v1.5.2PL0 Copyright (c) Steve Scherf et al.
# Submitted via: ExactAudioCopy v0.95a5
#
DISCID=fe129f12
DTITLE=Mark Knopfler - Country-Blues Route part1  CD2
DYEAR=2011
DGENRE=Country
TTITLE0=True Love Will Never Find
TTITLE1=I Dug Up A Diamond (with Emmylou Harris)
TTITLE2=A Place Where We Used To Live
TTITLE3=An American Hero (instrumental)
TTITLE4=Baloney again
TTITLE5=Our Shangri-La
TTITLE6=Don't You Get It
TTITLE7=Punish The Monkey
TTITLE8=My Claim to Frame
TTITLE9=The Next Time I'm in Town (with Chet Atkins)
TTITLE10=5.15 A.M.
TTITLE11=Cleaning My Gun
TTITLE12=Prairie wedding
TTITLE13=You Don't Know You're Born
TTITLE14=Just Instinct (instrumental)
TTITLE15=Hill Farmer's Blues
TTITLE16=This Is Us (with Emmylou Harris)
TTITLE17=The Fizzy And The Still
EXTD=
EXTT0=
EXTT1=
EXTT2=
EXTT3=
EXTT4=
EXTT5=
EXTT6=
EXTT7=
EXTT8=
EXTT9=
EXTT10=
EXTT11=
EXTT12=
EXTT13=
EXTT14=
EXTT15=
EXTT16=
EXTT17=
PLAYORDER=
